# xmcd
#
# Track frame offsets:
#	150
#	10145
#	22855
#	33809
#	47666
#	60610
#	71056
#	83601
#	96993
#	108094
#	119774
#	131401
#	142052
#	152275
#	158425
#	170547
#	179907
#	191370
#	201325
#	211418
#	224857
#	235951
#	249636
#	260948
#	273043
#	283355
#	293992
#
# Disc length: 4082 seconds
#
# Revision: 1
# Processed by: cddbd v1.5.2PL0 Copyright (c) Steve Scherf et al.
# Submitted via: audiograbber 1.83.01
#
DISCID=980ff01b
DTITLE=Willie Nelson - And then I Wrote
DYEAR=2016
DGENRE=Country
TTITLE0=Touch Me
TTITLE1=Wake Me When It's Over
TTITLE2=Hello Walls
TTITLE3=Funny How Time Slips Away
TTITLE4=Crazy
TTITLE5=The Part Where I Cry
TTITLE6=Mr. Record Man
TTITLE7=Three Days
TTITLE8=One Step Beyond
TTITLE9=Undo The Right
TTITLE10=Darkness On The Face Of The Earth
TTITLE11=Where My House Lives
TTITLE12=Lumberjack
TTITLE13=No Place For Me
TTITLE14=The Storm Has Just Begun
TTITLE15=Man With The Blues
TTITLE16=What A Way To Live
TTITLE17=Misery Mansion
TTITLE18=There's Gonna Be Love In My House
TTITLE19=The Last Letter
TTITLE20=Half A Man
TTITLE21=Rainy Day Blues
TTITLE22=Night Life
TTITLE23=Our Chain Of Love
TTITLE24=You Dream About Me
TTITLE25=Is This My Destiny
TTITLE26=Willingly
EXTD=
EXTT0=
EXTT1=
EXTT2=
EXTT3=
EXTT4=
EXTT5=
EXTT6=
EXTT7=
EXTT8=
EXTT9=
EXTT10=
EXTT11=
EXTT12=
EXTT13=
EXTT14=
EXTT15=
EXTT16=
EXTT17=
EXTT18=
EXTT19=
EXTT20=
EXTT21=
EXTT22=
EXTT23=
EXTT24=
EXTT25=
EXTT26=
PLAYORDER=
